<?xml version="1.0" encoding="UTF-8" standalone="no"?>
<!-- Created with Inkscape (http://www.inkscape.org/) -->

<svg
   version="1.1"
   id="svg1"
   width="1024"
   height="1024"
   viewBox="0 0 1024 1024"
   sodipodi:docname="dexter-monotone.svg"
   inkscape:version="1.4.3 (0d15f75042, 2025-12-25)"
   xmlns:inkscape="http://www.inkscape.org/namespaces/inkscape"
   xmlns:sodipodi="http://sodipodi.sourceforge.net/DTD/sodipodi-0.dtd"
   xmlns="http://www.w3.org/2000/svg"
   xmlns:svg="http://www.w3.org/2000/svg">
  <defs
     id="defs1" />
  <sodipodi:namedview
     id="namedview1"
     pagecolor="#ffffff"
     bordercolor="#000000"
     borderopacity="0.25"
     inkscape:showpageshadow="2"
     inkscape:pageopacity="0.0"
     inkscape:pagecheckerboard="0"
     inkscape:deskcolor="#d1d1d1"
     inkscape:zoom="0.78125"
     inkscape:cx="512"
     inkscape:cy="512"
     inkscape:window-width="1800"
     inkscape:window-height="1051"
     inkscape:window-x="0"
     inkscape:window-y="0"
     inkscape:window-maximized="1"
     inkscape:current-layer="g1" />
  <g
     inkscape:groupmode="layer"
     inkscape:label="Image"
     id="g1">
    <path
       style="fill:#000000"
       d="m 494,1013.3446 c -15.0104,-0.7792 -37.56658,-2.6557 -46.50604,-3.8691 C 338.24881,994.64732 238.20499,944.45738 158.5,864.49313 120.08305,825.95123 88.848693,782.76425 65.207566,735.5 37.0578,679.2219 20.465028,621.36211 13.874749,556.5 c -1.658813,-16.32618 -1.675981,-70.56791 -0.02754,-87 2.083653,-20.77034 6.998028,-51.80227 10.720248,-67.69324 3.17138,-13.53932 4.476218,-18.51852 8.597259,-32.80676 2.993808,-10.37996 12.685974,-37.98645 15.272107,-43.5 0.773933,-1.65 2.370029,-5.475 3.546879,-8.5 4.105024,-10.55163 21.94475,-45.60877 30.487275,-59.91105 C 119.59038,194.94201 169.11347,142.01641 230,99.423897 260.74053,77.919693 305.07878,54.625879 337.5,42.947053 c 2.75,-0.990609 7.34471,-2.688644 10.21046,-3.77341 14.06883,-5.325436 53.07257,-15.868442 68.78954,-18.594333 38.93257,-6.752314 61.29504,-8.668819 99,-8.484485 55.51628,0.271411 100.28321,7.262006 150,23.4233 76.24073,24.783355 143.07017,66.379305 201.5,125.417515 52.16741,52.71058 89.39004,111.27516 115.00166,180.93892 13.60042,36.99323 23.92024,82.51791 28.13764,124.12544 1.7316,17.08357 1.7607,77.98069 0.044,93 -7.2953,63.8432 -21.90025,116.07788 -47.02046,168.16851 C 893.54432,871.53408 756.67922,976.82585 601.5,1005.3999 c -36.31802,6.6874 -75.67872,9.5963 -107.5,7.9447 z m 53.60478,-33.37372 C 578.04591,977.5415 623.62216,968.49761 652,959.25531 c 9.72119,-3.16607 9.02317,-1.05391 7.85292,-23.76239 -1.36987,-26.58205 0.006,-74.13979 2.73321,-94.44941 l 0.59835,-4.45648 -3.95801,5.00724 c -7.45791,9.43497 -42.72172,44.00622 -51.71514,50.69949 C 582.92104,910.59486 557.37886,916.9089 513,915.65701 491.56435,915.05233 484.18058,913.98875 470.5,909.53519 446.98799,901.88111 413.06451,879.21468 367,840.38028 359.22307,833.82398 343.75518,818.91202 334.96849,809.5 l -7.46849,-8 v 45 c 0,39.73615 -0.274,47.79073 -2.34243,68.85757 -1.28834,13.12166 -1.96334,24.23062 -1.5,24.68658 2.82174,2.77679 44.13016,17.83159 65.34243,23.81396 27.97145,7.88863 62.38472,14.03728 90,16.08037 15.87351,1.17439 54.06925,1.19243 68.60478,0.0324 z m 141.01677,-34.53723 c 54.079,-22.51919 105.97605,-56.67839 147.21718,-96.89996 12.93916,-12.61928 31.74136,-33.46654 44.67457,-49.53369 9.02555,-11.2126 29.6559,-41.98205 38.45457,-57.35365 42.76016,-74.70357 64.6912,-166.19727 60.07652,-250.63209 -2.50883,-45.90407 -9.93408,-85.07394 -24.12361,-127.25755 C 942.56475,327.02384 926.16515,292.82576 904.76521,259.16729 895.03112,243.85721 880.29054,223.94749 867.99299,209.5 854.61197,193.77962 824.76229,164.36265 809.13985,151.5 734.69383,90.205298 648.28706,54.770415 552,46.048529 537.30308,44.717251 489.13436,44.711943 473.5,46.039879 329.10237,58.304586 200.26046,135.50617 120.59372,257.5 77.708576,323.17009 52.044745,399.04183 46.025911,477.94989 c -1.330296,17.44045 -1.313225,53.00322 0.03365,70.10022 C 55.023927,661.84207 105.61448,768.6371 188.62445,849 c 23.45315,22.70526 52.906,45.44784 81.87555,63.22178 15.82931,9.71189 40.17087,22.44068 41.11272,21.49884 0.69002,-0.69003 3.4516,-30.56575 4.50351,-48.72062 1.21962,-21.04921 0.59465,-74.71873 -1.06034,-91.0581 -0.87923,-8.68051 -1.46212,-10.51684 -6.34841,-20 -6.76735,-13.13386 -10.11584,-21.61455 -13.13289,-33.2615 -1.30796,-5.04922 -2.75982,-9.17204 -3.22635,-9.16182 -0.46653,0.0102 -3.93579,0.63311 -7.70947,1.38422 -18.80686,3.74326 -36.33404,-4.12155 -43.24024,-19.4028 -2.15289,-4.76367 -2.77619,-7.82004 -3.02493,-14.83282 l -0.31329,-8.83281 -4.94875,-2.46607 c -2.72181,-1.35633 -6.22288,-4.13157 -7.78016,-6.16718 -2.4538,-3.20754 -2.8314,-4.58818 -2.8314,-10.35271 0,-7.05963 0.004,-7.06858 8.85112,-18.21129 1.56812,-1.97508 3.26868,-5.44944 3.77901,-7.72079 0.89084,-3.96483 0.76626,-4.30507 -3.12029,-8.52149 -5.39332,-5.85105 -12.67824,-17.23395 -15.54545,-24.29021 C 211.55645,600.02614 207.0488,577.5392 207.02196,565 c -0.0296,-13.80511 4.35453,-32.77702 9.87085,-42.71565 2.58849,-4.66363 2.72916,-5.35159 1.3291,-6.5 -3.35205,-2.74955 -13.15128,-19.0621 -15.26311,-25.40815 -5.99484,-18.01451 -3.53715,-37.90091 6.54155,-52.93088 4.67398,-6.97012 4.68122,-6.93374 -2.00035,-10.0438 -5.54184,-2.57955 -17.46319,-14.71055 -21.38039,-21.75639 -8.77972,-15.792 -9.51628,-37.95856 -1.88222,-56.64513 6.16833,-15.09877 17.13932,-27.09326 30.74759,-33.61608 l 7.63424,-3.6593 -4.36951,-8.61231 c -5.49191,-10.82455 -7.13224,-19.33169 -5.53051,-28.68251 1.40939,-8.22797 6.78973,-19.61919 11.88731,-25.16775 C 232.32143,240.8646 247.66161,234 258.71232,234 c 4.86672,0 5.41268,-0.20196 4.73065,-1.75 -0.42405,-0.9625 -0.97031,-6.79838 -1.21392,-12.96863 -0.37669,-9.54128 -0.11338,-12.30353 1.76108,-18.47477 3.28575,-10.81765 6.59441,-16.58146 13.38914,-23.32445 C 283.74776,171.16216 289.04999,168 293.27868,168 c 5.03216,0 5.93343,3.89776 3.22998,13.96894 -2.11574,7.8818 -1.72001,20.97098 0.77189,25.53106 0.90166,1.65 1.69421,2.775 1.76123,2.5 0.067,-0.275 0.9195,-5 1.89439,-10.5 3.31352,-18.69366 9.86374,-31.30616 22.48502,-43.29515 7.95292,-7.55449 17.60334,-12.97777 28.07881,-15.77955 13.30439,-3.5584 34.42207,-2.79181 45.71512,1.65949 l 4.71618,1.85895 1.96362,-4.4391 c 2.72904,-6.16944 10.05337,-13.66883 16.32752,-16.71776 14.94937,-7.26467 29.59274,-5.58758 42.48497,4.86575 l 4.2074,3.41146 4.7926,-5.20603 c 16.878,-18.33399 30.98201,-26.101762 54.29041,-29.900417 30.66912,-4.998257 65.9868,11.177747 80.75095,36.985097 1.43394,2.50649 2.68979,4.68247 2.79078,4.83551 0.10099,0.15304 2.60841,-0.95727 5.57204,-2.46736 4.6033,-2.34557 6.62689,-2.74967 13.88841,-2.77341 7.02641,-0.023 9.28013,0.38104 13,2.33048 5.46813,2.86565 13.80091,11.41346 14.6319,15.00948 0.33332,1.44241 1.21206,3.59567 1.95276,4.78502 1.28978,2.07101 1.54519,2.10273 6.03996,0.75 15.28273,-4.59943 36.02352,1.6404 47.22423,14.20731 C 720.37234,179.18291 724,188.92297 724,202.2449 v 5.97192 l 2.71255,-0.68081 c 20.63233,-5.17839 45.05415,0.34407 61.4958,13.90591 15.31205,12.63009 24.3117,30.67096 25.47021,51.05808 0.68684,12.0868 -0.74793,22.20241 -4.53102,31.94507 l -2.79665,7.20227 7.70066,3.6317 c 10.23283,4.82589 20.21093,14.49425 24.74436,23.97626 11.08906,23.19355 7.30285,51.04159 -9.29591,68.37253 l -6,6.26467 3.35009,4.30375 C 834.81455,428.42794 839,441.64739 839,456.57087 c 0,20.49662 -8.94243,34.83569 -27.20791,43.62752 -10.51064,5.05915 -13.78491,9.69588 -12.32861,17.45865 2.04274,10.88873 15.38687,13.69467 25.10941,5.27988 6.14117,-5.31515 9.24051,-5.1881 11.39055,0.46693 2.33696,6.14666 -3.38387,23.27162 -11.1271,33.30828 -5.20737,6.74973 -12.14536,12.13369 -20.93838,16.24844 -7.10199,3.32342 -17.95211,5.99426 -24.4643,6.02207 -13.32913,0.0569 -29.41608,-6.77938 -39.15162,-16.63784 l -6.21797,-6.29647 -1.01108,4.22584 c -0.5561,2.3242 -2.07168,7.37583 -3.36796,11.22583 -2.04042,6.06014 -2.25557,8.007 -1.60243,14.5 2.31294,22.99326 3.27088,61.25414 2.10571,84.10361 -2.6706,52.37146 -7.41269,76.448 -19.9905,101.49567 -5.74095,11.43264 -18.92379,31.7503 -27.18672,41.90072 -7.34891,9.02762 -7.61098,9.60367 -8.41636,18.5 -0.37344,4.125 -1.3776,14.7 -2.23147,23.5 -2.27266,23.42222 -2.15422,96.5 0.15641,96.5 0.18316,0 7.42901,-2.95486 16.10188,-6.56635 z M 487.79232,786.81303 c 4.77939,-2.39613 11.56896,-10.77792 10.99855,-13.57781 -0.15998,-0.78528 -1.93007,-1.98982 -3.93354,-2.67676 -7.45411,-2.55584 -13.42713,-7.322 -11.54045,-9.20868 0.41038,-0.41038 2.64447,-0.19517 4.96463,0.47823 24.20608,7.02558 51.25205,6.70627 70.22109,-0.82904 8.77089,-3.48417 8.4974,-3.43486 8.4974,-1.5323 0,2.06876 -6.55839,8.38439 -9.46396,9.11364 -6.92276,1.7375 -0.52495,14.34899 9.15455,18.04563 8.46996,3.23471 20.43745,0.13222 30.71273,-7.96205 20.07159,-15.81124 29.09061,-61.589 17.72616,-89.97248 -1.12252,-2.80357 -1.13156,-2.79501 -5.05697,4.79065 -14.75283,28.50914 -38.05263,47.09525 -66.3724,52.94486 -9.92557,2.05018 -31.63198,2.06243 -43.31863,0.0245 -21.29919,-3.71427 -36.18331,-11.29298 -50.96687,-25.95137 -8.90148,-8.82611 -10.69166,-11.21386 -15.25,-20.34053 C 431.32407,694.47218 429,689.18468 429,688.40947 c 0,-3.10786 -1.96762,-1.11195 -3.84168,3.89693 -4.34001,11.59971 -5.14203,22.79062 -2.65531,37.05053 3.88189,22.26037 12.44231,38.81796 25.2668,48.87105 14.42518,11.30788 28.54866,14.33744 40.02251,8.58505 z M 540,739.58341 c 9.04934,-1.62504 21.30898,-6.24726 29.60215,-11.16082 6.38386,-3.78233 19.24844,-14.99402 16.05505,-13.99224 -4.41989,1.38655 -20.68086,2.78493 -24.24935,2.08535 -3.84527,-0.75383 -3.74728,-0.8098 6.11866,-3.49524 11.02736,-3.00157 18.87796,-6.17414 21.79727,-8.80865 2.12129,-1.91435 9.06774,-15.15362 8.33522,-15.88614 -0.25815,-0.25815 -2.42453,0.19395 -4.81418,1.00467 -5.80675,1.97 -27.18576,6.29323 -38.27902,7.74071 -5.77157,0.7531 -17.6303,0.98756 -33.5,0.66235 -29.41716,-0.60283 -47.11768,-3.18467 -74.40055,-10.85223 -5.95912,-1.67475 -11.02031,-2.85945 -11.24709,-2.63266 -0.22678,0.22678 0.27961,2.44305 1.12531,4.92505 3.99338,11.71993 21.80483,20.27839 54.72708,26.29655 3.7238,0.68071 7.0613,1.52841 7.41667,1.88377 1.18305,1.18305 -15.05347,0.65457 -24.68722,-0.80354 -8.25822,-1.24992 -16.49073,-3.37595 -23.5,-6.06885 -3.23897,-1.24438 7.41295,9.30197 13.8628,13.7254 9.99053,6.85172 25.13331,12.80153 38.97134,15.31239 9.44879,1.71445 27.30184,1.74568 36.66586,0.0641 z M 385.58927,688.25 c 2.2215,-12.25276 11.98443,-26.531 24.443,-35.74774 2.49275,-1.84412 8.11775,-5.12654 12.5,-7.29426 34.51085,-17.07117 81.06022,-18.67942 105.96773,-3.66112 4.62084,2.78619 6.34479,3.37031 7.5,2.54121 5.40918,-3.88222 12.5896,-7.46388 19.5,-9.72676 6.90536,-2.26124 9.71037,-2.61916 20.5,-2.61582 21.64227,0.007 38.52269,4.97316 55.56086,16.34679 10.07866,6.72788 16.95275,14.66316 22.11018,25.5234 2.38093,5.01364 4.32896,9.62614 4.32896,10.25 0,0.62387 0.36625,1.1343 0.81389,1.1343 1.09866,0 13.67296,-8.4195 18.8814,-12.64262 8.17807,-6.63094 18.24536,-22.27885 25.32109,-39.35738 3.0947,-7.46962 9.37169,-30.94526 8.50577,-31.81118 -0.25024,-0.25024 -2.14969,1.03299 -4.221,2.85163 -4.64979,4.08257 -19.66615,11.26273 -28.04812,13.41138 -14.66967,3.76044 -34.49747,2.93824 -50.61754,-2.09898 -42.29726,-13.2171 -74.12982,-50.47465 -79.6653,-93.24208 -0.52602,-4.06408 -1.46343,-8.00016 -2.08312,-8.74684 C 545.33338,511.49184 536.51537,509 531.44423,509 c -4.80248,0 -12.01218,2.29902 -14.62503,4.66362 -0.97904,0.88603 -2.03136,3.23668 -2.33848,5.22367 -2.59728,16.80394 -5.52483,26.57503 -11.50448,38.39786 -23.00481,45.48457 -75.03496,71.35654 -120.22522,59.78194 -23.84509,-6.10745 -41.29302,-22.12704 -49.43562,-45.38867 -3.28369,-9.38081 -6.31145,-25.14628 -6.33071,-32.96388 -0.008,-3.418 -0.34696,-6.73574 -0.75229,-7.37276 -0.40534,-0.63702 -2.53595,-1.48424 -4.73469,-1.88272 -2.19874,-0.39848 -4.80274,-1.56478 -5.78667,-2.59179 C 314.71383,525.82641 312.54288,525 310.80576,525 h -3.11633 l 0.67208,15.25 c 2.42333,54.98688 17.20771,99.60503 41.33053,124.73248 5.77418,6.01465 32.35578,26.77811 34.51265,26.95856 0.38757,0.0324 1.01064,-1.62854 1.38458,-3.69104 z m 157.48487,-61.20512 c -4.02464,-0.99551 -3.47289,-2.80913 1.64335,-5.40172 9.69229,-4.91146 17.303,-14.9285 18.76879,-24.70307 1.01017,-6.73631 -1.45195,-11.91887 -8.01729,-16.87575 -6.13022,-4.62836 -10.28597,-12.12095 -13.12562,-23.66479 -2.08483,-8.47535 -2.5491,-34.59244 -0.64873,-36.49366 1.42171,-1.42234 1.77602,-0.17979 3.30594,11.59411 1.70485,13.12 4.6782,26.11862 7.26891,31.77747 1.55429,3.39501 5.16353,8.02755 9.99145,12.82425 6.71272,6.6693 7.63854,8.04516 8.27655,12.29972 1.0581,7.0559 -0.09,14.0451 -3.50635,21.34571 -1.66713,3.56257 -3.03114,6.65187 -3.03114,6.86512 0,0.99958 6.40867,0.22776 8.92848,-1.07528 4.8139,-2.48937 5.18952,-5.59365 1.60776,-13.28699 L 572.09201,597 h 2.43981 c 3.0989,0 7.42265,6.24162 8.16674,11.78925 0.67044,4.9985 -1.94703,10.77076 -5.78375,12.7548 -3.6101,1.86686 -9.02107,1.85622 -13.52728,-0.0266 -3.4323,-1.4341 -3.66815,-1.38781 -7.21789,1.41659 -4.18444,3.30584 -9.54585,4.98885 -13.0955,4.11084 z m -53.74618,-2.98305 c -5.46617,-2.48181 -7.72536,-6.03866 -7.63511,-12.02064 0.10254,-6.79704 3.03618,-11.81547 8.58416,-14.68444 4.02098,-2.07933 5.38539,-0.67233 2.42717,2.50294 -1.35289,1.45217 -2.96479,3.62323 -3.58199,4.82457 -1.61019,3.13411 -1.38763,9.90744 0.38373,11.6788 2.9894,2.9894 5.15234,2.76688 12.93211,-1.33042 6.41264,-3.37729 8.60715,-4.03264 13.50372,-4.03264 5.10909,0 6.24976,0.37648 9.04115,2.98403 3.37597,3.15363 3.57906,5.73123 0.40947,5.19704 -10.73923,-1.80995 -13.13069,-1.5097 -21.5174,2.70146 -4.51007,2.26461 -8.68947,4.10759 -9.28755,4.09551 -0.59808,-0.0121 -2.96484,-0.87437 -5.25946,-1.91621 z M 281.80111,643.0779 c 3.63759,-0.97284 4.0709,-3.96477 4.13883,-28.5779 0.10323,-37.40081 -3.9267,-68.57266 -11.01498,-85.20187 -7.43007,-17.43103 -28.97252,-22.73427 -42.00177,-10.33984 -4.76519,4.53301 -10.49967,16.54866 -12.59201,26.38447 -1.9241,9.04492 -1.27394,34.95813 1.12044,44.65724 7.48535,30.32149 24.27223,50.3401 45.54838,54.31715 2.79157,0.52182 10.6885,-0.13937 14.80111,-1.23925 z m -20.33508,-24.47793 c -4.75922,-2.07336 -8.91937,-6.89679 -11.2889,-13.08875 -2.61639,-6.83706 -2.7023,-9.65546 -0.50197,-16.4684 1.85473,-5.74283 7.23264,-11.19723 12.87683,-13.05998 3.18219,-1.05022 3.23703,-1.16574 2.26906,-4.77953 C 261.66504,559.42084 250.23085,543 245.18248,543 c -4.87694,0 -10.14904,8.75331 -10.19779,16.9315 -0.008,1.41268 -0.45842,3.2435 -1,4.0685 -1.90294,2.89879 -3.13122,-1.04373 -2.59312,-8.32336 1.57773,-21.34432 19.20991,-24.93427 31.75227,-6.46482 7.69544,11.33203 12.88122,27.33507 12.84085,39.62615 -0.0316,9.61855 -4.44825,9.50299 -6.94006,-0.18158 C 268.24417,585.54538 267.02784,583 266.34168,583 c -2.69223,0 -6.47935,2.49045 -8.24456,5.42171 -4.82,8.00396 -2.93941,19.16606 4.42062,26.23814 5.36074,5.15103 4.9823,6.56884 -1.05171,3.94012 z M 430.5,608.58798 c 39.0211,-11.71883 68.10927,-44.05738 75.49396,-83.92982 3.15379,-17.02838 -2.30294,-29.61006 -16.09846,-37.11852 -6.95316,-3.78438 -22.53167,-8.11596 -34.46748,-9.58363 -12.80683,-1.57477 -52.5756,-1.63601 -62.9242,-0.0969 -34.80719,5.17675 -51.11755,16.16282 -56.62547,38.14089 -3.14256,12.53966 -0.50253,40.21385 5.32349,55.80367 2.73964,7.33098 10.95606,19.31013 16.59556,24.19553 6.11141,5.29421 19.14272,11.7724 28.38184,14.10933 11.23272,2.84119 32.1914,2.12214 44.32076,-1.52055 z m -14.77103,-36.67985 c -3.02529,-1.76125 -1.0473,-2.67179 7.43506,-3.42265 8.21275,-0.72699 17.13104,-2.8746 24.06413,-5.79485 2.40856,-1.0145 3.94995,-1.21146 4.35477,-0.55645 0.98109,1.58744 -3.30706,5.49321 -7.90573,7.20078 -8.958,3.32626 -24.23815,4.73309 -27.94823,2.57317 z m -33.12563,-16.74092 c -1.47715,-2.39008 8.25372,-6.38073 18.7596,-7.69335 5.37826,-0.67197 6.83783,-1.61371 4.62277,-2.98269 -0.55786,-0.34478 -1.90786,-2.37841 -3,-4.51918 -2.90329,-5.69092 -2.67682,-14.22093 0.52634,-19.82406 1.36837,-2.39364 2.48795,-4.54029 2.48795,-4.77033 0,-0.23004 -1.90342,0.5528 -4.22982,1.73964 -6.06057,3.09188 -15.61565,12.6653 -20.27018,20.3091 -4.78159,7.85246 -6.5,8.3843 -6.5,2.01173 0,-8.94718 8.06312,-20.67796 19,-27.64249 2.475,-1.57606 8.1,-4.05733 12.5,-5.51393 6.95157,-2.30129 9.63817,-2.64661 20.5,-2.63493 13.90562,0.015 20.21293,1.62374 28.23308,7.20133 10.09479,7.0204 19.27562,20.30992 16.17367,23.41187 -0.32629,0.32629 -4.48879,-3.36462 -9.25,-8.20202 -7.66404,-7.78667 -9.40214,-9.03861 -15.15675,-10.91724 -8.01963,-2.61806 -16,-4.15376 -16,-3.07894 0,0.44193 0.87174,1.08018 1.9372,1.41835 2.88527,0.91575 7.87746,9.10117 8.6361,14.16016 0.76755,5.11841 -0.92829,12.27005 -3.76456,15.87578 -2.20869,2.8079 -2.88751,2.5053 9.90151,4.41382 8.1297,1.2132 16.53381,4.06547 16.41229,5.57017 -0.13486,1.66995 -6.33085,1.68848 -18.04976,0.054 -14.05342,-1.96012 -31.80197,-1.97684 -44.07278,-0.0415 -16.55173,2.61049 -18.69308,2.79317 -19.39666,1.65476 z M 417.77749,530.4433 C 419.41477,529.2965 420,527.88048 420,525.06574 c 0,-4.73233 -1.75717,-6.28639 -6.64879,-5.88027 -2.8452,0.23622 -4.14568,0.95419 -5.22355,2.88382 -3.55283,6.36035 3.62806,12.59182 9.64983,8.37401 z m 257.64187,80.05613 c 3.80565,-0.80621 11.15391,-3.52583 16.32948,-6.0436 17.03713,-8.28808 26.82655,-21.34561 32.9543,-43.95583 2.45264,-9.04975 2.71355,-11.66294 2.74574,-27.5 0.0318,-15.6301 -0.19884,-18.12268 -2.15822,-23.32753 -4.4371,-11.78663 -12.28021,-19.32628 -25.68961,-24.69566 -15.86224,-6.35155 -37.23375,-9.0488 -66.10105,-8.34246 -43.64741,1.06798 -65.68208,8.42066 -74.32768,24.80219 -2.42012,4.5856 -2.65919,6.0072 -2.53315,15.06346 0.5803,41.6986 39.00383,85.02478 83.36083,93.99726 8.85711,1.7916 26.96728,1.79271 35.41936,0.002 z m -64.32037,-40.98032 c -6.48534,-2.408 -10.63812,-5.46527 -9.96705,-7.33773 0.22089,-0.61632 3.76689,0.15483 8.86806,1.92853 4.79122,1.66593 12.36942,3.3564 17.36819,3.87431 9.37045,0.97086 10.2257,1.24583 9.17293,2.94925 -0.39352,0.63673 -4.363,1.04553 -9.85014,1.01443 -7.12139,-0.0404 -10.63234,-0.58728 -15.59199,-2.42879 z M 590,555.02085 c -1.33333,-0.84313 -1.33333,-1.10723 0,-2.37685 1.65648,-1.57734 13.0897,-4.644 17.31389,-4.644 1.47736,0 2.68611,-0.45 2.68611,-1 0,-0.55 -0.36714,-1 -0.81586,-1 -1.38179,0 -4.93534,-7.27885 -5.61433,-11.5 -0.79602,-4.94872 1.42886,-12.78227 4.61836,-16.26075 l 2.31183,-2.5213 -2.83309,0.68093 c -5.61242,1.34894 -13.75582,7.807 -20.3178,16.11286 -2.44273,3.09189 -3.42609,3.7241 -4.37535,2.81291 -2.95533,-2.8368 7.54675,-17.24168 16.98665,-23.29924 6.16015,-3.95296 15.33754,-6.79536 24.52513,-7.59585 14.63411,-1.27505 32.00124,5.05722 42.40563,15.46161 6.28043,6.28043 9.12169,11.33674 10.16873,18.09627 1.4157,9.13957 -0.67918,9.22563 -5.92508,0.24341 -4.3833,-7.50525 -12.68723,-15.94318 -18.70819,-19.01011 C 648.59937,517.27124 638.68014,514 636.59599,514 c -0.57255,0 -0.0349,0.70474 1.19489,1.56608 7.31497,5.12361 8.45594,18.75579 2.47323,29.5498 -0.18775,0.33873 3.73892,1.36237 8.72592,2.27476 11.45665,2.09602 20.00997,5.22502 20.00997,7.3201 0,1.81193 -4.22986,1.57209 -22,-1.24748 -12.14311,-1.92673 -32.51955,-1.45766 -45,1.0359 -8.73308,1.74485 -9.97996,1.79906 -12,0.52169 z m 30.54545,-25.4754 c 2.76208,-2.76207 2.94797,-3.73952 1.30485,-6.86119 -1.48435,-2.82003 -2.7901,-3.65009 -5.77156,-3.66895 -5.71104,-0.0361 -8.48537,8.18562 -3.85623,11.42799 3.13209,2.1938 5.48514,1.93996 8.32294,-0.89785 z M 317.81736,509.41191 c 1.47545,-0.76977 4.759,-1.40236 7.29678,-1.40575 4.5628,-0.006 4.63376,-0.0575 6.37694,-4.62198 2.8485,-7.4587 13.19663,-17.60605 22.87744,-22.43357 5.71475,-2.84977 10.44517,-6.26825 15.91627,-11.502 6.17745,-5.90948 9.89393,-8.46908 18,-12.39687 17.40888,-8.43548 38.04602,-13.055 58.21521,-13.03118 26.31819,0.0311 39.92294,6.91847 41.26549,20.89062 l 0.46718,4.86202 5.06554,0.67197 c 8.6953,1.15347 77.83282,0.4083 78.21198,-0.84297 0.18369,-0.60621 0.63201,-2.9022 0.99627,-5.1022 0.49334,-2.97965 1.85387,-5.1524 5.33358,-8.5177 C 584.77593,449.27449 591.50376,447.5 610,447.5 c 25.95538,0 46.50617,6.1568 67,20.07249 4.51966,3.06893 8.93734,5.04136 14.5,6.47402 4.4,1.13322 11.54194,3.85691 15.87097,6.05264 4.32903,2.19573 8.03833,3.82489 8.24288,3.62034 0.20454,-0.20455 0.0376,-4.38761 -0.37097,-9.2957 L 714.5,465.5 l -9.60648,-0.20813 c -7.75308,-0.16797 -11.12939,-0.76509 -17.5,-3.09496 -15.85774,-5.79953 -24.62119,-13.58738 -31.66499,-28.13985 -3.85916,-7.97301 -4.12149,-9.08842 -4.54289,-19.31614 -0.39177,-9.50874 -0.64798,-10.7725 -2.06643,-10.19302 -3.40445,1.39082 -18.94105,1.69512 -24.23798,0.47473 -5.83448,-1.34424 -16.03059,-6.46991 -21.49598,-10.80621 -3.51473,-2.78862 -9.80308,-11.14902 -12.80783,-17.0281 -1.76851,-3.46027 -4.5737,-17.43736 -4.57605,-22.80064 -0.001,-3.02126 -0.15977,-3.13093 -5.41522,-3.74861 -7.98774,-0.9388 -13.99417,-3.9328 -20.67616,-10.30634 l -5.95569,-5.68077 -3.41068,3.30576 c -1.87587,1.81817 -4.38095,5.56121 -5.56683,8.31788 -1.91935,4.46163 -2.02225,5.49039 -0.93693,9.36676 1.40461,5.01679 4.60646,7.4038 12.46014,9.28917 14.72172,3.53413 21.63433,14.47047 18.54687,29.34272 -1.03846,5.00221 -0.95171,6.15244 0.75497,10.01068 2.25334,5.09406 6.72585,7.71507 13.16503,7.71507 4.85856,0 7.15189,-1.05358 12.28601,-5.64432 4.2956,-3.84096 6.67716,-4.19546 9.23056,-1.37397 1.41898,1.56795 1.66108,2.94725 1.15955,6.60629 -1.3497,9.84714 -9.74691,20.28115 -20.15806,25.04753 -15.09385,6.91019 -30.1493,4.46967 -42.08942,-6.82279 -8.72817,-8.25475 -9.89551,-11.16179 -9.89551,-24.643 0,-13.02261 -0.061,-13.12427 -9.5,-15.84057 -8.46707,-2.43659 -12.25288,-4.73128 -17.7762,-10.77468 -6.79832,-7.43844 -9.42982,-14.485 -9.35937,-25.06222 0.0602,-9.0421 1.19528,-12.90067 7.04005,-23.9323 4.78478,-9.03094 5.38545,-14.65038 2.02294,-18.92511 -3.07201,-3.90542 -7.5702,-3.52827 -15.75259,1.32078 -11.78929,6.98657 -19.54432,6.72726 -31.77788,-1.06256 -6.78363,-4.31953 -8.431,-4.96111 -11.68505,-4.55081 -8.00114,1.00885 -11.94403,6.66223 -11.86605,17.01371 0.0883,11.72502 7.44535,20.19933 18.5293,21.34329 3.53545,0.36489 7.19296,0.10333 9.58248,-0.68529 16.41652,-5.41794 8.41468,14.39004 -9.82306,24.31626 -15.20267,8.27433 -36.71023,7.04278 -51.37626,-2.94188 -12.29423,-8.36993 -19.72723,-18.62873 -24.2777,-33.50732 -2.93806,-9.60653 -2.46997,-9.47134 -8.08693,-2.33561 -6.47646,8.2276 -15.5,15.48012 -25.54263,20.52946 C 342.36944,353.83657 331.07519,357 325.12665,357 h -2.7426 l 0.42641,8.91883 c 0.50393,10.54015 -1.45023,20.69754 -5.71818,29.72212 l -2.86328,6.0544 4.40162,6.84109 c 9.70338,15.08116 12.31874,33.57364 7.02292,49.65695 -2.96283,8.99801 -4.26342,11.23354 -11.26342,19.36018 l -5.21433,6.05357 -0.71964,12.6319 c -0.39581,6.94755 -0.43573,13.37178 -0.0887,14.27607 0.70916,1.84805 4.68219,1.38423 9.44993,-1.1032 z m 212.16653,-7.16912 c 4.85599,-0.34034 8.03816,0.0598 12.49028,1.57073 6.24245,2.11847 7.52583,2.04815 7.52583,-0.41238 0,-5.32106 8.53317,-15.75659 17.31486,-21.17499 L 573.3539,478.5 552.17695,478.23011 c -11.64732,-0.14844 -30.73945,-0.14844 -42.42695,0 L 488.5,478.5 l 4.67567,2.16089 c 8.73794,4.0383 19.78746,16.82066 19.81495,22.92244 0.0145,3.23025 0.81214,3.39146 5.81984,1.17632 2.56152,-1.13309 7.58957,-2.26567 11.17343,-2.51686 z M 295.71657,488.36414 c 2.35589,-0.89972 4.28343,-2.0034 4.28343,-2.45262 0,-0.44923 3.2625,-4.25616 7.25,-8.45986 7.11521,-7.50099 11.8171,-13.98655 13.01455,-17.95166 0.3322,-1.1 1.28882,-3.8 2.12583,-6 0.96665,-2.54074 1.53015,-7.46575 1.54464,-13.5 0.0282,-11.74719 -2.50837,-19.68783 -9.87195,-30.90393 C 309.44586,402.0632 309,400.87279 309,395.57808 v -5.80599 l -4.15335,6.21969 c -5.3879,8.06846 -13.09682,14.07414 -21.63053,16.85144 -3.69387,1.20216 -7.47433,2.17924 -8.40102,2.17127 -0.9267,-0.008 -2.88811,0.44297 -4.35869,1.00208 -2.21818,0.84335 -2.464,1.26935 -1.44266,2.5 1.70671,2.05645 13.23513,1.95298 19.55811,-0.17554 2.71048,-0.91244 7.54908,-3.42692 10.75246,-5.58773 5.45903,-3.68236 5.93822,-3.82568 7.64043,-2.2852 2.89839,2.62301 7.72088,12.4725 9.56316,19.5319 2.14285,8.21111 1.48632,20.2142 -1.54944,28.328 -2.80471,7.49625 -10.75738,16.06714 -21.60589,23.2855 -4.60492,3.064 -8.37258,5.90442 -8.37258,6.31204 0,2.55606 4.67145,2.74725 10.71657,0.4386 z m 515.70274,-14.73749 c 4.12896,-4.22914 5.60198,-6.64183 6.91751,-11.33031 3.46623,-12.35357 -1.58619,-28.03915 -11.17114,-34.68152 C 802.65596,424.48958 798.72678,424.27322 796,427 c -2.92691,2.92691 -2.47854,6.46033 1.36373,10.74712 5.05662,5.64163 6.63627,9.44557 6.63627,15.98071 0,5.98343 -0.92446,8.10572 -5.54234,12.7236 C 792.8511,472.05799 794.87143,479 802.10968,479 c 3.59638,0 4.6667,-0.61777 9.30963,-5.37335 z m -78.28152,-17.19582 c 16.24176,-10.81075 25.9817,-31.65791 21.80963,-46.68083 -0.58479,-2.10571 -1.67018,-3.75 -2.47537,-3.75 -1.47012,0 -1.59415,0.36346 -3.51276,10.29418 -1.64768,8.52841 -8.11355,20.68515 -14.24328,26.77934 -3.17177,3.15339 -7.92795,6.46092 -12.13572,8.4394 -6.77378,3.185 -6.85506,3.26782 -3.8537,3.92703 1.68632,0.37038 3.85743,1.5479 4.82471,2.61673 2.40416,2.65657 3.40865,2.48621 9.58649,-1.62585 z m -13.7819,-15.80617 c 5.92151,-2.47416 11.46155,-7.37795 14.68542,-12.99884 4.64711,-8.10235 3.42428,-14.70574 -2.9839,-16.11321 -3.58249,-0.78685 -6.67968,0.72191 -7.63028,3.71699 -2.27856,7.1791 -9.04132,11.92166 -17.20168,12.06311 -10.69721,0.18542 -20.88753,-8.24219 -23.59536,-19.51385 C 681.79038,404.28348 678.72978,402.53907 676,404 c -1.65481,0.88563 -2,2.09382 -2,7.00024 0,14.05508 8.87543,26.20009 22.3963,30.64676 5.18482,1.70515 17.77334,1.14461 22.95959,-1.02234 z M 806,411.95455 c 0,-0.575 1.09594,-2.1414 2.43543,-3.48089 2.73623,-2.73623 2.54282,-2.96925 -4.15015,-5.00005 -13.56747,-4.11668 -18.71698,1.78271 -5.99019,6.8625 7.27936,2.9055 7.70491,2.99488 7.70491,1.61844 z m -580.45198,-5.38749 c 1.89622,-2.894 0.87648,-5.49754 -3.64262,-9.30012 -1.56248,-1.31473 -4.31789,-5.39068 -6.12313,-9.05766 -2.902,-5.89478 -3.27738,-7.59652 -3.24009,-14.68825 0.0692,-13.15556 5.03742,-21.26713 17.47487,-28.53099 3.71294,-2.16847 7.02803,-4.66514 7.36687,-5.54815 3.47379,-9.05254 -8.17993,-11.35845 -19.16567,-3.79228 -11.08156,7.63216 -17.33498,17.64077 -19.27544,30.85039 -1.8229,12.40924 3.28912,27.55112 12.2208,36.19822 6.79278,6.57634 11.73876,7.90661 14.38441,3.86884 z m 589.37741,-21.52715 c 6.12964,-3.28049 8.71139,-23.69403 4.24187,-33.53991 -3.93908,-8.67735 -13.93001,-17.5 -19.81734,-17.5 -5.78567,0 -9.36723,5.91135 -6.06816,10.01546 0.67001,0.83351 3.14772,3.0223 5.50603,4.86399 7.71685,6.02639 10.91938,16.31024 7.82287,25.12055 -1.98491,5.64753 -1.99243,7.00998 -0.054,9.77749 1.64895,2.3542 5.2997,2.90491 8.36873,1.26242 z m -501.75876,-30.0288 c 0.18333,-0.54388 4.15833,-1.48148 8.83333,-2.08356 17.83883,-2.29737 31.02236,-8.27558 42.19605,-19.13421 6.1677,-5.9938 12.66294,-15.26769 11.50451,-16.42612 -0.29834,-0.29834 -4.74051,3.3933 -9.8715,8.20364 -17.32555,16.24284 -28.92103,21.31903 -48.86896,21.39352 -10.41888,0.0389 -17.1232,-1.36121 -28.68351,-5.99018 C 284.19135,339.33839 280.65788,338 280.42444,338 280.191,338 280,339.04081 280,340.31291 c 0,5.92159 17.337,14.7131 30.66667,15.55091 1.19166,0.0749 2.31666,-0.30882 2.5,-0.85271 z m 253.53369,-33.26794 c 13.73859,-20.24968 10.60805,-48.80564 -6.80763,-62.09736 -9.71405,-7.4138 -17.66891,-9.65387 -29.17665,-8.21607 -6.18624,0.77292 -15.98316,6.00302 -16.52614,8.82251 -0.46224,2.4002 1.90052,2.21772 6.5029,-0.50225 3.22893,-1.90827 5.25002,-2.25 13.30716,-2.25 11.38179,0 16.41721,2.01245 23.99428,9.58951 6.94645,6.94646 9.43837,13.77467 9.45588,25.91049 0.0119,8.23773 -0.34484,10.27035 -2.68474,15.2977 -1.48415,3.18873 -4.07357,7.46373 -5.75428,9.5 l -3.05584,3.7023 3.77235,1.67584 c 4.9214,2.18629 4.45195,2.28275 6.97271,-1.43267 z M 391.46165,289.96299 c 2.42239,-7.50252 5.67447,-12.90791 12.6233,-20.98162 3.25328,-3.77992 5.91505,-7.12206 5.91505,-7.42698 0,-1.60814 -4.37119,-0.11139 -9.59496,3.28543 -9.40455,6.11541 -14.57094,14.72082 -19.00768,31.66018 -3.78769,14.46128 -3.32359,16.34693 4.54424,18.4638 l 2.5584,0.68834 0.59889,-10.11308 c 0.32939,-5.56219 1.39263,-12.57142 2.36276,-15.57607 z m 394.45885,6.45045 c 9.17426,-7.71963 7.38437,-32.28977 -3.50392,-48.09908 -8.11357,-11.78056 -20.27837,-19.16894 -35.12792,-21.33524 -17.75078,-2.58954 -32.7926,3.73111 -28.19936,11.84951 1.65793,2.93033 2.72774,3.04924 14.68708,1.63239 15.84021,-1.87663 34.62637,9.30854 40.06976,23.85731 2.67191,7.14132 3.6888,17.01035 2.28731,22.19872 -1.38377,5.1228 -0.20645,9.62084 2.93626,11.21821 3.2587,1.65632 3.32718,1.6431 6.85079,-1.32182 z m -539.49193,-2.98487 c 1.76043,-1.76042 1.79529,-1.95415 1.60682,-8.92857 -0.17307,-6.40465 3.81697,-13.09404 9.53614,-15.98753 5.18311,-2.62229 9.42847,-6.47872 9.42847,-8.5647 0,-0.92293 -0.97224,-2.91405 -2.16053,-4.42472 -1.9431,-2.47025 -2.64507,-2.7001 -6.97541,-2.28401 -9.56168,0.91876 -20.66126,11.96987 -22.76564,22.66622 -1.30832,6.65009 -0.23876,14.17719 2.4342,17.13078 2.13649,2.3608 6.7252,2.56328 8.89595,0.39253 z M 332.78807,215.75 c 0.56813,-0.6875 1.3425,-3.05 1.72082,-5.25 2.8435,-16.53525 9.78807,-27.34741 21.20063,-33.00777 5.12569,-2.54222 6.93856,-2.88704 15.79048,-3.00339 13.31575,-0.17503 13.00497,-0.10695 14.39282,-3.15296 2.88895,-6.34055 -3.66642,-11.12865 -16.51692,-12.06413 -24.39912,-1.77617 -48.73455,22.05005 -47.19625,46.20867 0.49045,7.70235 2.71756,11.51958 6.72096,11.51958 1.56997,0 3.31933,-0.5625 3.88746,-1.25 z m 299.59698,-2.14802 c 0.90591,-3.60945 -1.08308,-12.41099 -3.8852,-17.19244 C 626.14244,192.38691 618.58052,185 616.82,185 c -0.451,0 -0.82,-4.66358 -0.82,-10.36351 0,-10.78834 -1.31219,-20.34868 -3.0285,-22.06499 -1.55785,-1.55785 -6.2418,3.72089 -6.29137,7.09028 -0.023,1.56102 0.3294,7.26848 0.78304,12.68323 l 0.82479,9.84502 -6.40551,-0.68598 c -5.20776,-0.5577 -7.61715,-0.2778 -12.88517,1.49687 -6.78644,2.28618 -15.34063,7.84548 -16.42662,10.67553 -1.42507,3.71369 1.36217,3.63167 9.04127,-0.26604 7.17272,-3.64068 8.27946,-3.90618 16.29178,-3.90822 7.46173,-0.002 9.35506,0.37619 14.34531,2.86468 8.25932,4.11869 11.79291,8.55622 16.62918,20.88313 1.32897,3.38733 2.71023,3.52597 3.50685,0.35198 z M 460.86936,164.65741 c 0.61284,-0.73842 2.45638,-4.59728 4.09675,-8.57524 l 2.98251,-7.23265 -2.16237,-2.92476 C 464.59695,144.31614 463.33543,143 462.98288,143 c -1.19169,0 -5.00255,9.46441 -5.99768,14.89548 -0.70526,3.84906 -0.66641,5.78371 0.13554,6.75 1.41651,1.7068 2.33957,1.70973 3.74862,0.0119 z m 129.67839,-4.30343 c 3.34755,-3.61207 3.15109,-7.48845 -0.5958,-11.75593 -3.48965,-3.97448 -6.28352,-4.76468 -10.18746,-2.88134 -4.67621,2.2559 -4.55543,7.55503 0.32851,14.4139 2.70422,3.79773 7.05597,3.89071 10.45475,0.22337 z m -87.0651,-12.56221 c 7.96367,-7.54199 15.97807,-12.0423 25.61816,-14.38533 9.44358,-2.29526 19.60826,-1.0106 29.12132,3.6805 7.41886,3.65841 11.11379,3.46467 13.00305,-0.68181 2.4552,-5.38858 -4.72142,-12.74085 -17.1199,-17.53889 -7.72223,-2.9884 -21.40541,-3.62862 -30.10528,-1.40858 -10.54798,2.69164 -21.81587,8.78664 -28.40616,15.3654 -3.20926,3.20365 -6.43981,6.91655 -7.179,8.25088 -2.01546,3.63819 -1.70405,7.98931 0.75947,10.61161 3.71452,3.95392 6.95222,3.07283 14.30834,-3.89378 z"
       id="path1" />
  </g>
</svg>
