<?xml version="1.0" encoding="UTF-8" standalone="no"?>
<!-- Created with Inkscape (http://www.inkscape.org/) -->

<svg
   version="1.1"
   id="svg1"
   width="353.76001"
   height="353.76001"
   viewBox="0 0 353.76002 353.76001"
   sodipodi:docname="logo.svg"
   inkscape:version="1.4.3 (0d15f75042, 2025-12-25)"
   xmlns:inkscape="http://www.inkscape.org/namespaces/inkscape"
   xmlns:sodipodi="http://sodipodi.sourceforge.net/DTD/sodipodi-0.dtd"
   xmlns="http://www.w3.org/2000/svg"
   xmlns:svg="http://www.w3.org/2000/svg">
  <defs
     id="defs1" />
  <sodipodi:namedview
     id="namedview1"
     pagecolor="#ffffff"
     bordercolor="#000000"
     borderopacity="0.25"
     inkscape:showpageshadow="2"
     inkscape:pageopacity="0.0"
     inkscape:pagecheckerboard="0"
     inkscape:deskcolor="#d1d1d1"
     inkscape:zoom="1.4247344"
     inkscape:cx="236.53531"
     inkscape:cy="216.88253"
     inkscape:window-width="1800"
     inkscape:window-height="1051"
     inkscape:window-x="0"
     inkscape:window-y="0"
     inkscape:window-maximized="1"
     inkscape:current-layer="g1" />
  <g
     inkscape:groupmode="layer"
     inkscape:label="Image"
     id="g1"
     transform="translate(-361.01041,-118.42271)">
    <rect
       style="fill:#0b0d0c;fill-opacity:1;stroke:none;stroke-width:18.8976;stroke-linecap:round;stroke-linejoin:round"
       id="rect1"
       width="353.76001"
       height="353.76001"
       x="361.01041"
       y="118.42271" />
    <path
       style="fill:#ffb347;fill-opacity:1"
       d="m 526.1,434.88996 c -4.30257,-2.00544 -22.63497,-12.72756 -34.76163,-20.33114 l -3.76164,-2.3586 10.53826,-13.98011 10.53826,-13.98011 19.22337,-0.008 c 21.55744,-0.008 28.64461,-0.86201 40.22338,-4.84425 21.44824,-7.37661 41.94015,-26.13626 51.12193,-46.8004 9.08015,-20.43541 9.84741,-45.18895 2.06522,-66.62864 -7.08938,-19.53104 -24.26496,-38.34294 -43.83749,-48.01391 -13.49923,-6.6701 -20.38025,-7.93167 -46.12191,-8.45601 -20.96926,-0.42713 -22.85163,-0.6122 -23.77497,-2.33747 -3.31238,-6.18923 -13.99321,-8.76677 -20.96838,-5.06016 -10.45124,5.55379 -10.87357,20.97744 -0.74354,27.15379 6.71969,4.09705 17.1717,1.87316 21.37964,-4.54896 l 1.72916,-2.63903 23.07517,0.38602 c 22.1368,0.37032 23.4005,0.49902 31.07517,3.16486 19.71395,6.84774 34.51025,19.83869 43.43088,38.13171 6.0312,12.36783 7.49319,18.98631 7.39996,33.5 -0.0716,11.15368 -0.41492,13.5232 -3.18712,22 -7.53268,23.03337 -25.40992,41.26262 -47.86567,48.80817 -7.45029,2.50344 -8.87962,2.62882 -33.91907,2.97535 l -26.14103,0.36178 -12.71415,16.92735 c -6.99278,9.31049 -13.18957,16.9278 -13.77063,16.9278 -0.58106,0 -3.90873,-1.6685 -7.39482,-3.70778 L 462.6,397.82445 v -27.9463 -27.94629 l 3.97718,-3.40432 c 4.94655,-4.23406 6.77678,-9.82769 5.07457,-15.50914 -0.62628,-2.09035 -0.78137,-4.43913 -0.34464,-5.21953 0.43674,-0.78039 6.1938,-8.41068 12.79348,-16.9562 l 11.99941,-15.5373 0.26466,29.96731 0.26467,29.96732 h 25.39624 c 21.89997,0 26.21444,-0.25465 31.33951,-1.84975 12.52794,-3.89914 23.92224,-14.17045 30.11867,-27.15025 3.22471,-6.75488 3.61695,-8.49349 3.94809,-17.5 0.30391,-8.26606 -0.006,-11.10739 -1.78872,-16.38657 -5.61711,-16.63619 -19.98864,-29.67673 -36.47835,-33.09998 -2.95281,-0.613 -14.86562,-0.93934 -28.56499,-0.78249 L 497.1,248.74 l -0.32077,8 -0.32077,8 -17.69433,23 -17.69433,23 -4.89555,0.26772 c -15.00887,0.8208 -20.90494,18.28598 -9.53093,28.23228 l 2.85885,2.5 0.13784,17 c 0.0758,9.35 0.0978,20.23967 0.0489,24.19927 l -0.0889,7.19926 -7.25,-4.09387 C 423.77722,375.55715 419.44054,372.05305 415.98329,364.74 c -2.31038,-4.88711 -2.36397,-5.63785 -2.37352,-33.25 l -0.01,-28.25 7.75,-0.11831 c 12.55644,-0.1917 12.62323,-0.22764 21.14898,-11.38169 l 7.64364,-10 5.66432,-0.50669 c 6.96746,-0.62326 10.50597,-3.02816 13.63568,-9.26733 1.84822,-3.68447 2.19776,-5.52748 1.65624,-8.73273 -1.29477,-7.66366 -7.89096,-12.99325 -16.08117,-12.99325 -9.84469,0 -16.15877,7.63567 -15.05405,18.20503 l 0.60702,5.80765 -6.23533,7.97669 -6.23533,7.9767 -7.30479,0.017 -7.3048,0.017 0.3048,-29.75 0.30479,-29.75 2.77346,-4.7181 c 3.23595,-5.50488 5.39441,-7.0666 28.72654,-20.78478 9.625,-5.65904 23.575,-13.86572 31,-18.23706 48.16306,-28.35516 50.74967,-29.77678 56.15306,-30.86193 9.70683,-1.94941 11.93238,-0.90298 67.30625,31.64693 28.02762,16.47522 52.35609,31.34841 54.06327,33.05154 1.70717,1.70313 3.97548,4.85313 5.04068,7 1.84483,3.71815 1.95005,6.91701 2.21729,67.4034 0.30998,70.15889 0.46365,68.23547 -6.04386,75.64712 -1.6901,1.9249 -11.64425,8.53072 -22.62715,15.0159 -10.78524,6.36848 -33.31646,19.68886 -50.06936,29.60085 -16.7529,9.91198 -32.2779,18.84763 -34.5,19.857 -5.9279,2.69268 -15.70081,2.48387 -22.04018,-0.47091 z M 451.6,331.24 c -2.67532,-2.67532 -2.52137,-5.56954 0.45455,-8.54545 1.35,-1.35 3.375,-2.45455 4.5,-2.45455 2.81141,0 6.04545,3.4772 6.04545,6.5 0,1.375 -0.9,3.4 -2,4.5 -1.1,1.1 -3.125,2 -4.5,2 -1.375,0 -3.4,-0.9 -4.5,-2 z m -0.92742,-61.63486 C 449.53266,268.15597 448.6,266.41666 448.6,265.74 c 0,-0.67666 0.93266,-2.41597 2.07258,-3.86514 3.98148,-5.06164 10.92742,-2.43187 10.92742,4.13718 0,5.9399 -7.21523,8.31238 -10.92742,3.5931 z M 489.1567,220.01749 C 485.92704,215.4065 488.75542,209.24 494.1,209.24 c 5.47583,0 8.66058,7.73473 4.67126,11.34501 -2.68165,2.42686 -7.72576,2.12912 -9.61456,-0.56752 z"
       id="path1"
       sodipodi:nodetypes="ssccccssssssssscsssssssccsscccsssscccsssscsscccccsscsscssscsscssssscccccccssssssssssssssssssssssssssssss" />
    <rect
       style="fill:none;fill-opacity:1;stroke:#ffb347;stroke-width:9.99996;stroke-linecap:round;stroke-linejoin:round;stroke-dasharray:none;stroke-opacity:1"
       id="rect2"
       width="321.29968"
       height="321.29968"
       x="377.24057"
       y="134.65286"
       ry="30.720001"
       rx="30.720001" />
  </g>
</svg>
